<?xml version="1.0" encoding="UTF-8" standalone="no"?>
<svg
   version="1.0"
   width="128.000000pt"
   height="128.000000pt"
   viewBox="0 0 128.000000 128.000000"
   preserveAspectRatio="xMidYMid meet"
   id="svg1"
   sodipodi:docname="monsieurluge logo.svg"
   inkscape:version="1.3.2 (091e20e, 2023-11-25)"
   inkscape:export-filename="monsieurluge logo.png"
   inkscape:export-xdpi="168.75"
   inkscape:export-ydpi="168.75"
   xmlns:inkscape="http://www.inkscape.org/namespaces/inkscape"
   xmlns:sodipodi="http://sodipodi.sourceforge.net/DTD/sodipodi-0.dtd"
   xmlns="http://www.w3.org/2000/svg"
   xmlns:svg="http://www.w3.org/2000/svg">
  <defs
     id="defs1" />
  <sodipodi:namedview
     id="namedview1"
     pagecolor="#ffffff"
     bordercolor="#000000"
     borderopacity="0.25"
     inkscape:showpageshadow="2"
     inkscape:pageopacity="0.0"
     inkscape:pagecheckerboard="0"
     inkscape:deskcolor="#d1d1d1"
     inkscape:document-units="pt"
     showgrid="false"
     inkscape:zoom="3.7966818"
     inkscape:cx="103.77483"
     inkscape:cy="77.040958"
     inkscape:window-width="1656"
     inkscape:window-height="998"
     inkscape:window-x="12"
     inkscape:window-y="12"
     inkscape:window-maximized="0"
     inkscape:current-layer="svg1" />
  <metadata
     id="metadata1">
Created by potrace 1.10, written by Peter Selinger 2001-2011
</metadata>
  <path
     id="path1"
     fill="#ff0000ff"
     d="m 498.00293,928.99414 c -6.99998,-1 -23.99807,-4.99414 -37.99805,-8.99414 -13.99996,-4 -41.99906,-7.99414 -63.99902,-8.99414 -29.99994,-1 -54.0001,-12.00983 -105,-50.00977 -35.99992,-25.99994 -89.00787,-63.99808 -118.00781,-82.99804 l -50.99121,-34.99512 75,-7.00195 c 72.99984,-7 76.98931,-6.00483 103.98925,19.99511 15.99998,14.99998 30.99903,24.99805 33.99903,22.99805 4.99998,-5.99998 -115.00004,-371.9991 -135,-408.99902 -10.99998,-20.99996 -10.99897,-22.99608 11.00097,-15.9961 12.99998,3 54.00692,12.00295 92.00684,18.00293 56.99988,9.99998 67.00195,15.00297 67.00195,33.00293 0,30.99994 79.99329,161.00016 147.99317,240 59.99988,68.99986 152.00683,153.98826 152.00683,137.98828 0,-3.99998 -22.99908,-86.98846 -48.99902,-182.98828 -26.99994,-95.9998 -48.01074,-177.00392 -46.01074,-179.0039 2.99998,-2 39.99814,1.99414 82.99804,8.99414 77.99986,11.99998 79.01077,12.00299 91.01075,48.00293 19.99996,55.99988 68.99326,138.99914 117.99316,198.99902 39.64279,49.95384 26.29348,28.86851 60,74.00391 16.99996,14.99996 17.00678,14.9938 -12.99316,-156.00586 -13.99998,-79.99984 -21.99901,-155.00002 -18.99903,-165 5,-16.99998 16.99815,-20.00196 67.99805,-22.00196 93.99977,-3.99998 155.99027,0.001 174.99027,11.00098 13,7.99998 3.0058,10.00098 -38.9942,11.00098 -40.9998,0 -58.0029,4.00002 -63.0029,15 -7,17.99996 9.0039,162.00018 29.0039,255 8,38.99992 15,99.01178 15,132.01172 v 60.99609 l -37.002,-7.00195 c -20.9998,-3 -55.99902,-6.00586 -78.99898,-6.00586 -42.9999,0 -49.99234,-4.9943 -121.99218,-83.99414 -23.99996,-25.99996 -46.00295,-46.0078 -48.00293,-43.00782 -3,2 8.99027,41.00108 24.99023,86.00098 l 30,81.00586 h -82.99805 -83.99414 l -59.0039,-52.00195 c -31.99994,-27.99996 -86.00008,-79.00202 -120,-112.00196 -33.79166,-31.86069 -60.80884,-55.99985 -62.65137,-54.94629 -0.0734,0.13269 -0.11374,0.33451 -0.10254,0.61524 0.37738,2.87144 15.98854,41.8855 34.76074,87.33398 35.99994,84.99984 44.99801,141.99512 22.99805,139.99512 z"
     sodipodi:nodetypes="csccccccccccscscccccccccccccsccscccccccccccc"
     transform="matrix(0.1,0,0,-0.1,0,128)" />
</svg>
